<svg width="53" height="60" viewBox="0 0 53 60" fill="none" xmlns="http://www.w3.org/2000/svg">
<path d="M26.0279 23.1564V14.84H18.5139V9.29569H26.0279V0.979248H31.0373V9.29569H38.5513V14.84H31.0373V23.1564H26.0279ZM16.0092 59.1943C14.6317 59.1943 13.4519 58.651 12.4701 57.5643C11.4883 56.4776 10.9982 55.1729 10.9999 53.65C10.9999 52.1254 11.4908 50.8197 12.4726 49.733C13.4544 48.6463 14.6333 48.1039 16.0092 48.1058C17.3868 48.1058 18.5665 48.6491 19.5483 49.7358C20.5302 50.8225 21.0203 52.1272 21.0186 53.65C21.0186 55.1747 20.5277 56.4804 19.5458 57.5671C18.564 58.6538 17.3851 59.1962 16.0092 59.1943ZM41.056 59.1943C39.6785 59.1943 38.4988 58.651 37.5169 57.5643C36.5351 56.4776 36.045 55.1729 36.0467 53.65C36.0467 52.1254 36.5376 50.8197 37.5194 49.733C38.5013 48.6463 39.6801 48.1039 41.056 48.1058C42.4336 48.1058 43.6133 48.6491 44.5951 49.7358C45.577 50.8225 46.0671 52.1272 46.0654 53.65C46.0654 55.1747 45.5745 56.4804 44.5926 57.5671C43.6108 58.6538 42.4319 59.1962 41.056 59.1943ZM46.0654 45.3336H7.55593L15.0074 30.364L5.9905 9.29569H0.98114V3.7514H9.18397L19.8289 28.7007H37.4242L47.1299 9.29569H52.828L40.3672 34.245H18.7644L16.0092 39.7893H46.0654V45.3336Z" fill="black"/>
</svg>
